<svg width="128" height="128" viewBox="0 0 128 128" fill="none" xmlns="http://www.w3.org/2000/svg">
<path d="M20.2542 32.5739C20.2542 31.401 21.0592 29.9768 22.6693 28.3013C24.1946 26.542 25.508 25.6624 26.6096 25.6624C31.7786 25.6624 38.8543 25.8299 47.8366 26.165C50.0398 26.2488 52.7091 26.3326 55.8444 26.4163C58.895 26.5001 62.454 26.542 66.5214 26.542C79.4017 26.542 79.9949 26.7918 86.096 25.2838C88.1298 25.3676 89.6127 26.1635 90.5448 27.6714C91.3922 29.1794 91.8159 30.6873 91.8159 32.1953C91.8159 35.5463 90.6296 37.7664 88.2569 38.8555C85.8842 39.8608 82.4947 40.3634 78.0883 40.3634C61.7337 40.3634 55.5902 39.1921 41.8625 38.857C52.7091 48.4912 64.9962 56.3328 72.3684 61.6944C72.3684 61.6944 72.8768 62.4484 73.8937 63.9563C75.1648 65.3805 75.8003 66.5534 75.8003 67.4749C75.8003 69.6531 75.2495 71.4543 74.1479 72.8784C73.0463 74.3026 71.4363 75.6849 69.3178 77.0253L57.4968 82.7136C51.5651 86.9024 47.074 89.9602 44.0234 91.887C51.8193 91.887 62.4116 91.51 75.8003 90.7561C83.5115 90.1696 80.6728 90.63 84.5707 90.63C86.6045 90.63 88.3416 91.1326 89.7822 92.138C91.138 93.1433 91.8159 94.735 91.8159 96.9132C91.8159 99.0913 91.3922 100.893 90.5448 102.317C89.6974 103.657 88.4264 104.369 86.7316 104.453C85.291 104.369 82.9183 104.327 79.6135 104.327C73.0039 104.327 73.5971 103.783 64.1064 104.202L57.2426 104.453L48.345 104.705C45.7181 104.788 42.6676 104.872 39.1933 104.956C35.6343 105.04 31.7787 105.082 27.6265 105.082C22.5422 105.082 20 102.359 20 96.9136C20 95.2381 20.4237 93.5625 21.2711 91.887C22.1185 90.1277 23.3472 88.8292 24.9572 87.9914C27.9231 87.3212 32.8379 84.8499 39.7017 80.5773C46.5655 76.3047 56.1833 72.4596 62.1998 68.3546C57.4544 64.6684 50.7177 61.3089 48.345 58.9632C44.1928 54.942 40.3372 51.6328 36.7782 49.0358C33.2192 46.3549 28.9399 43.4647 23.9403 40.365C22.9235 39.611 22.0761 38.5219 21.3982 37.0977C20.6355 35.6736 20.2542 34.1656 20.2542 32.5739Z" fill="white"/>
<path d="M46.2306 18.1228C46.2306 10.4804 49.828 8.56982 51.6267 8.56982C54.3248 8.56982 59.7209 8.56983 59.7209 13.3463V111.264C59.7209 118.429 51.6267 120.817 46.2306 116.04C40.8346 111.264 46.2306 27.6757 46.2306 18.1228Z" fill="white"/>
<path d="M108 96.196C108 101.189 105.168 103.639 102.336 104.569C99.5035 104.569 93.8391 104.526 93.8391 98.9871C93.8391 96.6664 94.0163 94.8087 94.3531 93.435C94.8265 91.5043 95.6154 90.5299 96.6713 90.5707C99.7703 90.6904 108 90.5705 108 96.196Z" fill="white"/>
</svg>
