<svg width="90" height="19" viewBox="0 0 90 19" fill="none" xmlns="http://www.w3.org/2000/svg">
<path d="M7.712 12.824C7.91467 12.824 8.064 12.904 8.16 13.064C8.26667 13.2133 8.32 13.3787 8.32 13.56C8.32 13.784 8.28267 13.944 8.208 14.04C8.144 14.1253 8.016 14.216 7.824 14.312C7.376 14.5253 6.82133 14.696 6.16 14.824C5.49867 14.952 4.78933 15.016 4.032 15.016C3.08267 15.016 2.384 14.856 1.936 14.536C1.49867 14.216 1.22667 13.832 1.12 13.384C1.024 12.9253 0.976 12.328 0.976 11.592C0.976 10.8027 1.008 10.0293 1.072 9.272C1.136 8.504 1.248 7.528 1.408 6.344C1.48267 5.832 1.68533 5.464 2.016 5.24C2.34667 5.00533 2.70933 4.888 3.104 4.888C3.43467 4.888 3.97333 4.87733 4.72 4.856L6.112 4.84C6.688 4.84 7.104 4.856 7.36 4.888C7.68 4.952 7.91467 5.02667 8.064 5.112C8.224 5.18667 8.304 5.32 8.304 5.512C8.304 5.72533 8.22933 5.93333 8.08 6.136C7.94133 6.33867 7.728 6.44 7.44 6.44C7.10933 6.44 6.63467 6.41867 6.016 6.376C5.39733 6.33333 4.93333 6.312 4.624 6.312C4.35733 6.312 4.096 6.328 3.84 6.36C3.54133 6.38133 3.328 6.41867 3.2 6.472C3.072 6.52533 2.99733 6.616 2.976 6.744C2.82667 7.84267 2.752 8.65333 2.752 9.176C2.99733 9.208 3.23733 9.224 3.472 9.224C3.77067 9.224 4.09067 9.208 4.432 9.176C4.77333 9.144 4.992 9.12267 5.088 9.112C5.65333 9.05867 6.13867 9.032 6.544 9.032C6.77867 9.032 6.95467 9.07467 7.072 9.16C7.2 9.24533 7.264 9.36267 7.264 9.512C7.264 9.74667 7.2 9.928 7.072 10.056C6.95467 10.184 6.74133 10.28 6.432 10.344C6.05867 10.4187 5.59467 10.4773 5.04 10.52C4.496 10.5627 3.96267 10.584 3.44 10.584C3.25867 10.584 3.008 10.5733 2.688 10.552C2.656 11.2027 2.64 11.8053 2.64 12.36C2.64 13.1173 3.14133 13.496 4.144 13.496C4.67733 13.496 5.12 13.4587 5.472 13.384C5.824 13.3093 6.22933 13.2027 6.688 13.064C7.11467 12.904 7.456 12.824 7.712 12.824ZM16.894 13.768C16.9473 13.7893 17.0327 13.816 17.15 13.848C17.2673 13.88 17.3527 13.912 17.406 13.944C17.4593 13.976 17.486 14.024 17.486 14.088C17.4967 14.344 17.4007 14.5573 17.198 14.728C17.006 14.888 16.7767 14.968 16.51 14.968C16.094 14.968 15.7687 14.856 15.534 14.632C15.2993 14.408 15.1287 14.0667 15.022 13.608C14.9793 13.4267 14.958 13.176 14.958 12.856C14.958 12.6747 14.9687 12.3813 14.99 11.976C15.0113 11.5493 15.022 11.208 15.022 10.952C15.022 10.5787 14.9153 10.2533 14.702 9.976C14.4993 9.688 14.2113 9.544 13.838 9.544C13.614 9.544 13.3793 9.61333 13.134 9.752C12.8887 9.88 12.718 10.04 12.622 10.232C12.462 10.5413 12.35 10.8773 12.286 11.24C12.1687 11.88 12.11 12.5467 12.11 13.24C12.11 13.5707 12.1153 13.8267 12.126 14.008C12.126 14.0507 12.126 14.136 12.126 14.264C12.1367 14.3813 12.126 14.4933 12.094 14.6C12.0727 14.696 12.03 14.7867 11.966 14.872C11.9127 14.9253 11.8273 14.968 11.71 15C11.6033 15.0427 11.502 15.064 11.406 15.064C11.2567 15.064 11.07 15 10.846 14.872C10.622 14.744 10.494 14.6 10.462 14.44L10.446 14.168C10.446 14.072 10.4567 13.96 10.478 13.832C10.606 13.0853 10.67 12.4347 10.67 11.88C10.67 11.6347 10.6647 11.4427 10.654 11.304L10.638 10.552C10.638 10.296 10.574 10.0507 10.446 9.816C10.318 9.57067 10.1687 9.448 9.998 9.448C9.94467 9.448 9.87 9.46933 9.774 9.512C9.678 9.544 9.598 9.56 9.534 9.56C9.42733 9.56 9.31 9.50667 9.182 9.4C9.06467 9.29333 9.006 9.18133 9.006 9.064C9.006 8.84 9.08067 8.65867 9.23 8.52C9.39 8.392 9.54467 8.29067 9.694 8.216C9.854 8.14133 10.0353 8.104 10.238 8.104C10.4087 8.104 10.5473 8.12 10.654 8.152C10.7607 8.184 10.9047 8.25333 11.086 8.36C11.182 8.41333 11.294 8.53067 11.422 8.712C11.55 8.89333 11.6567 9.14933 11.742 9.48C12.0193 8.968 12.3607 8.61067 12.766 8.408C13.182 8.19467 13.71 8.088 14.35 8.088C14.5953 8.088 14.8567 8.168 15.134 8.328C15.422 8.488 15.6673 8.67467 15.87 8.888C16.062 9.12267 16.222 9.416 16.35 9.768C16.478 10.1093 16.542 10.4187 16.542 10.696C16.542 10.856 16.5313 11.1173 16.51 11.48C16.478 11.768 16.462 12.072 16.462 12.392C16.462 13.1387 16.606 13.5973 16.894 13.768ZM25.9249 14.232C25.9249 14.4667 25.7969 14.664 25.5409 14.824C25.2955 14.984 25.0662 15.064 24.8529 15.064C24.4475 15.064 24.1222 15.016 23.8769 14.92C23.6422 14.8133 23.4235 14.6213 23.2209 14.344C22.9435 14.5893 22.5649 14.776 22.0849 14.904C21.6049 15.0213 21.1622 15.08 20.7569 15.08C20.0955 15.08 19.5515 14.904 19.1249 14.552C18.6982 14.1893 18.4849 13.6613 18.4849 12.968C18.4849 12.6693 18.5649 12.3973 18.7249 12.152C18.8849 11.896 19.1035 11.672 19.3809 11.48C19.6902 11.2773 20.0422 11.1227 20.4369 11.016C20.8315 10.8987 21.2422 10.84 21.6689 10.84C21.8929 10.84 22.1595 10.8827 22.4689 10.968C22.7782 11.0533 23.0182 11.144 23.1889 11.24V10.984C23.1889 10.408 23.0502 10.0133 22.7729 9.8C22.4955 9.576 22.0475 9.464 21.4289 9.464C21.2475 9.464 21.0662 9.50133 20.8849 9.576C20.7142 9.65067 20.5169 9.752 20.2929 9.88C19.9942 10.04 19.7115 10.12 19.4449 10.12C19.3489 10.12 19.2582 10.056 19.1729 9.928C19.0875 9.78933 19.0449 9.66667 19.0449 9.56C19.0449 9.25067 19.1889 8.984 19.4769 8.76C19.7755 8.536 20.1275 8.37067 20.5329 8.264C20.9382 8.14667 21.3009 8.088 21.6209 8.088C21.9409 8.088 22.3089 8.152 22.7249 8.28C23.1409 8.39733 23.4822 8.56267 23.7489 8.776C24.0689 9.05333 24.3142 9.37867 24.4849 9.752C24.6662 10.1147 24.7569 10.5147 24.7569 10.952C24.7569 11.0907 24.7462 11.2987 24.7249 11.576C24.7035 11.8747 24.6929 12.1307 24.6929 12.344C24.6929 12.44 24.6822 12.584 24.6609 12.776C24.6395 13.0107 24.6289 13.1973 24.6289 13.336C24.6289 13.464 24.6769 13.576 24.7729 13.672C24.8689 13.7573 24.9809 13.8 25.1089 13.8L25.5569 13.784C25.6742 13.784 25.7649 13.8267 25.8289 13.912C25.8929 13.9973 25.9249 14.104 25.9249 14.232ZM20.7729 13.816C21.2315 13.816 21.6155 13.768 21.9249 13.672C22.2342 13.576 22.6075 13.4 23.0449 13.144C23.0875 12.9627 23.1142 12.7227 23.1249 12.424C22.5382 12.1467 22.0529 12.008 21.6689 12.008C21.2315 12.008 20.8422 12.088 20.5009 12.248C20.1595 12.408 19.9889 12.6907 19.9889 13.096C19.9889 13.2987 20.0742 13.4693 20.2449 13.608C20.4155 13.7467 20.5915 13.816 20.7729 13.816ZM28.7806 12.52C28.7806 12.9253 28.8393 13.24 28.9566 13.464C29.0846 13.6773 29.2446 13.784 29.4366 13.784C29.5433 13.784 29.6446 13.7787 29.7406 13.768C29.8366 13.7467 29.9326 13.736 30.0286 13.736C30.1353 13.736 30.226 13.7893 30.3006 13.896C30.386 14.0027 30.4286 14.12 30.4286 14.248C30.4286 14.504 30.306 14.7067 30.0606 14.856C29.826 14.9947 29.506 15.064 29.1006 15.064C28.8126 15.064 28.5193 14.9787 28.2206 14.808C27.9326 14.6267 27.6926 14.3493 27.5006 13.976C27.3086 13.592 27.2126 13.1173 27.2126 12.552C27.2126 11.336 27.234 10.3067 27.2766 9.464C27.33 8.46133 27.3566 7.19733 27.3566 5.672C27.3566 5.192 27.3833 4.856 27.4366 4.664C27.5006 4.51467 27.602 4.40267 27.7406 4.328C27.89 4.24267 28.0446 4.2 28.2046 4.2C28.3646 4.2 28.5033 4.22667 28.6206 4.28C28.7486 4.33333 28.834 4.41867 28.8766 4.536C28.9193 4.664 28.946 4.792 28.9566 4.92C28.978 5.03733 28.9886 5.208 28.9886 5.432C28.9886 5.86933 28.9726 6.29067 28.9406 6.696C28.9193 7.18667 28.9086 7.544 28.9086 7.768C28.8233 9.64533 28.7806 11.2293 28.7806 12.52ZM41.0559 4.888C41.2052 4.888 41.3865 4.98933 41.5999 5.192C41.8239 5.384 41.9359 5.54933 41.9359 5.688C41.9359 6.33867 41.9145 7.22933 41.8719 8.36C41.8612 8.63733 41.8505 8.97333 41.8399 9.368C41.8292 9.752 41.8239 10.2 41.8239 10.712C41.8239 12.3333 41.9199 13.528 42.1119 14.296C42.1012 14.552 41.9999 14.7387 41.8079 14.856C41.6159 14.9627 41.4239 15.016 41.2319 15.016C40.8052 15.016 40.5225 14.8667 40.3839 14.568C40.2559 14.2693 40.1919 13.8427 40.1919 13.288C40.1919 11.2293 40.2132 9.336 40.2559 7.608C39.0292 8.97333 38.0745 10.12 37.3919 11.048C37.3919 11.048 37.2959 11.112 37.1039 11.24C36.9225 11.4 36.7732 11.48 36.6559 11.48C36.3785 11.48 36.1492 11.4107 35.9679 11.272C35.7865 11.1333 35.6105 10.9307 35.4399 10.664L34.6719 9.576C34.1385 8.82933 33.7492 8.264 33.5039 7.88C33.5039 8.86133 33.5519 10.1947 33.6479 11.88C33.7225 12.8507 33.7599 13.5813 33.7599 14.072C33.7599 14.328 33.6959 14.5467 33.5679 14.728C33.4399 14.8987 33.2372 14.984 32.9599 14.984C32.6825 14.984 32.4532 14.9307 32.2719 14.824C32.1012 14.7173 32.0105 14.5573 31.9999 14.344C32.0105 14.1627 32.0159 13.864 32.0159 13.448C32.0159 12.616 31.9892 11.6027 31.9359 10.408L31.9039 9.544L31.8719 8.424C31.8612 8.09333 31.8505 7.70933 31.8399 7.272C31.8292 6.824 31.8239 6.33867 31.8239 5.816C31.8239 5.176 32.1705 4.856 32.8639 4.856C33.0772 4.856 33.2905 4.90933 33.5039 5.016C33.7279 5.12267 33.8932 5.27733 33.9999 5.48C34.0852 5.85333 34.3999 6.472 34.9439 7.336C35.4879 8.2 36.0212 9.01067 36.5439 9.768C37.0132 9.17067 37.3972 8.72267 37.6959 8.424C38.2079 7.90133 38.6292 7.416 38.9599 6.968C39.3012 6.52 39.6692 5.98133 40.0639 5.352C40.1599 5.224 40.2985 5.11733 40.4799 5.032C40.6612 4.936 40.8532 4.888 41.0559 4.888ZM50.178 15.064C49.8153 15.064 49.538 15.0107 49.346 14.904C49.154 14.7867 48.946 14.5733 48.722 14.264C48.4447 14.5093 48.0287 14.7067 47.474 14.856C46.93 15.0053 46.4607 15.08 46.066 15.08C45.4153 15.08 44.8873 14.904 44.482 14.552C44.0873 14.1893 43.89 13.6613 43.89 12.968C43.89 12.6693 43.97 12.3973 44.13 12.152C44.3007 11.896 44.5193 11.672 44.786 11.48C45.0847 11.2773 45.4367 11.1173 45.842 11C46.258 10.8827 46.6367 10.824 46.978 10.824C47.554 10.824 48.066 10.8773 48.514 10.984V10.968C48.514 10.392 48.37 9.99733 48.082 9.784C47.8047 9.56 47.3567 9.448 46.738 9.448C46.3433 9.448 46.002 9.624 45.714 9.976C45.6073 10.1147 45.3833 10.184 45.042 10.184C44.8713 10.184 44.7433 10.1147 44.658 9.976C44.5833 9.82667 44.546 9.67733 44.546 9.528C44.546 9.21867 44.674 8.952 44.93 8.728C45.1967 8.504 45.5167 8.33867 45.89 8.232C46.2633 8.11467 46.61 8.056 46.93 8.056C47.2393 8.056 47.6073 8.12 48.034 8.248C48.4607 8.376 48.8073 8.54667 49.074 8.76C49.394 9.03733 49.6393 9.36267 49.81 9.736C49.9913 10.0987 50.082 10.4987 50.082 10.936C50.082 11.0747 50.0713 11.2827 50.05 11.56C50.0287 11.88 50.018 12.1413 50.018 12.344C50.018 12.44 50.0073 12.5627 49.986 12.712C49.9647 12.904 49.954 13.064 49.954 13.192C49.954 13.3307 49.9967 13.464 50.082 13.592C50.1673 13.72 50.2847 13.8267 50.434 13.912C50.5727 13.9867 50.6633 14.0667 50.706 14.152C50.7487 14.2373 50.77 14.3333 50.77 14.44C50.77 14.5467 50.7007 14.68 50.562 14.84C50.434 14.9893 50.306 15.064 50.178 15.064ZM46.978 12.008C46.562 12.008 46.194 12.088 45.874 12.248C45.554 12.408 45.394 12.6907 45.394 13.096C45.394 13.2987 45.4633 13.4693 45.602 13.608C45.7513 13.7467 45.9113 13.816 46.082 13.816C46.5407 13.816 46.9247 13.768 47.234 13.672C47.5433 13.576 47.9167 13.4 48.354 13.144C48.4073 12.9733 48.4393 12.7333 48.45 12.424C48.45 12.3067 48.4553 12.216 48.466 12.152C47.89 12.056 47.394 12.008 46.978 12.008ZM54.197 14.36C54.1757 14.5413 54.101 14.7013 53.973 14.84C53.845 14.9787 53.6797 15.048 53.477 15.048C53.157 15.048 52.9223 14.9893 52.773 14.872C52.6237 14.744 52.549 14.5147 52.549 14.184C52.549 13.736 52.5757 13.2453 52.629 12.712C52.6717 12.0933 52.693 11.6187 52.693 11.288C52.693 11.1173 52.6823 10.904 52.661 10.648C52.6397 10.4133 52.629 10.2373 52.629 10.12C52.597 9.93867 52.5223 9.79467 52.405 9.688C52.2983 9.58133 52.1277 9.49067 51.893 9.416C51.797 9.37333 51.717 9.304 51.653 9.208C51.589 9.10133 51.557 9.00533 51.557 8.92C51.557 8.67467 51.653 8.488 51.845 8.36C52.037 8.232 52.2717 8.168 52.549 8.168C52.8583 8.168 53.125 8.27467 53.349 8.488C53.573 8.70133 53.7437 8.968 53.861 9.288C54.1063 8.936 54.405 8.65333 54.757 8.44C55.1197 8.22667 55.4717 8.12 55.813 8.12C56.2503 8.12 56.6183 8.19467 56.917 8.344C57.2263 8.48267 57.381 8.728 57.381 9.08C57.381 9.28267 57.2903 9.496 57.109 9.72C56.9383 9.93333 56.7623 10.04 56.581 10.04C56.4423 10.04 56.277 9.976 56.085 9.848C56.0103 9.79467 55.925 9.752 55.829 9.72C55.7437 9.67733 55.653 9.656 55.557 9.656C55.3863 9.656 55.2263 9.68267 55.077 9.736C54.9277 9.78933 54.8263 9.85333 54.773 9.928C54.6023 10.1947 54.4743 10.4347 54.389 10.648C54.3143 10.8613 54.277 11.0907 54.277 11.336C54.277 11.5173 54.2717 11.6613 54.261 11.768L54.245 12.68L54.261 13.288C54.261 13.736 54.2397 14.0933 54.197 14.36ZM63.8684 9.528C63.6444 9.912 63.3404 10.3067 62.9564 10.712C62.5724 11.1173 62.0817 11.5973 61.4844 12.152C60.919 12.6853 60.6044 12.9893 60.5404 13.064L59.9964 13.56C60.2097 13.6027 60.6097 13.624 61.1964 13.624C61.431 13.624 61.7724 13.5813 62.2204 13.496C62.647 13.4107 62.9617 13.368 63.1644 13.368C63.335 13.368 63.527 13.3947 63.7404 13.448C63.9644 13.5013 64.1724 13.5813 64.3644 13.688C64.4604 13.7307 64.5404 13.816 64.6044 13.944C64.6684 14.0613 64.7004 14.1733 64.7004 14.28C64.7004 14.4187 64.6524 14.5733 64.5564 14.744C64.4604 14.9147 64.3484 15 64.2204 15C64.103 15 63.9484 14.9787 63.7564 14.936C63.4684 14.8827 63.2657 14.856 63.1484 14.856C62.775 14.856 62.279 14.8827 61.6604 14.936C60.807 15 60.1777 15.032 59.7724 15.032C59.2604 15.032 58.855 14.968 58.5564 14.84C58.2684 14.712 58.1244 14.472 58.1244 14.12C58.1244 13.8533 58.2577 13.5493 58.5244 13.208C58.791 12.856 59.1164 12.488 59.5004 12.104L59.7244 11.864C59.895 11.6933 60.183 11.4373 60.5884 11.096C60.9937 10.744 61.303 10.4667 61.5164 10.264C61.7297 10.0507 61.9057 9.82667 62.0444 9.592L59.4844 9.608C59.0684 9.608 58.759 9.56 58.5564 9.464C58.3644 9.368 58.2684 9.18667 58.2684 8.92C58.2684 8.77067 58.3217 8.632 58.4284 8.504C58.535 8.36533 58.6737 8.28 58.8444 8.248C59.2284 8.19467 60.0124 8.168 61.1964 8.168C62.3804 8.168 63.1964 8.22667 63.6444 8.344C63.7617 8.38667 63.8524 8.46667 63.9164 8.584C63.991 8.69067 64.0284 8.80267 64.0284 8.92C64.0284 9.112 63.975 9.31467 63.8684 9.528ZM65.5783 9.608C65.4929 9.608 65.4183 9.576 65.3543 9.512C65.2903 9.43733 65.2583 9.352 65.2583 9.256C65.2583 8.94667 65.3596 8.712 65.5623 8.552C65.7649 8.38133 66.0156 8.296 66.3143 8.296C66.7303 8.296 67.0876 8.408 67.3863 8.632C67.6956 8.84533 67.8503 9.15467 67.8503 9.56C67.8503 9.66667 67.8289 10.072 67.7863 10.776C67.7436 11.5867 67.7223 12.1253 67.7223 12.392C67.7223 12.7653 67.7916 13.0693 67.9303 13.304C68.0796 13.528 68.3089 13.64 68.6183 13.64C69.2156 13.64 69.6743 13.3093 69.9943 12.648C70.3249 11.976 70.5436 11.1547 70.6503 10.184C70.6929 9.75733 70.7569 9.30933 70.8423 8.84C70.8849 8.584 70.9436 8.39733 71.0183 8.28C71.0929 8.16267 71.2369 8.104 71.4503 8.104C71.5889 8.104 71.7489 8.136 71.9303 8.2C72.1223 8.264 72.2449 8.34933 72.2983 8.456C72.3623 8.616 72.3943 8.792 72.3943 8.984C72.3943 9.25067 72.3569 9.59733 72.2823 10.024C72.1969 10.4507 72.1383 10.9147 72.1063 11.416C72.0849 11.864 72.1543 12.3333 72.3143 12.824C72.4743 13.3147 72.7036 13.6347 73.0023 13.784C73.3436 13.9547 73.5143 14.1093 73.5143 14.248C73.5143 14.472 73.4343 14.648 73.2743 14.776C73.1143 14.904 72.9596 14.968 72.8103 14.968C72.4156 14.968 72.0583 14.824 71.7383 14.536C71.4289 14.248 71.2049 13.8907 71.0663 13.464C70.8423 13.8053 70.6236 14.088 70.4103 14.312C70.2076 14.5253 69.9463 14.7067 69.6263 14.856C69.3063 14.9947 68.9116 15.064 68.4423 15.064C67.8876 15.064 67.3809 14.8667 66.9223 14.472C66.4743 14.0773 66.2503 13.4 66.2503 12.44C66.2503 12.1733 66.2556 11.8907 66.2663 11.592C66.2876 11.2933 66.2983 11.08 66.2983 10.952C66.3303 10.568 66.3463 10.216 66.3463 9.896C66.3463 9.8 66.3089 9.72 66.2343 9.656C66.1703 9.592 66.0956 9.56 66.0103 9.56C65.9463 9.56 65.8716 9.57067 65.7863 9.592C65.7116 9.60267 65.6423 9.608 65.5783 9.608ZM81.0609 13.544C81.2422 13.6827 81.3649 13.816 81.4289 13.944C81.4929 14.072 81.5249 14.232 81.5249 14.424C81.5249 14.584 81.4395 14.7333 81.2689 14.872C81.1089 15 80.9595 15.064 80.8209 15.064C80.7035 15.064 80.5649 15.0267 80.4049 14.952C80.2449 14.8773 80.1222 14.792 80.0369 14.696C79.9195 14.6 79.6902 14.3653 79.3489 13.992C79.0182 13.6187 78.7729 13.3253 78.6129 13.112C78.2289 12.632 78.0369 12.392 78.0369 12.392L77.4769 11.704L76.4529 12.536L76.5169 14.28C76.5169 14.568 76.4422 14.7707 76.2929 14.888C76.1542 15.0053 76.0155 15.064 75.8769 15.064C75.6742 15.064 75.4929 15.0267 75.3329 14.952C75.1835 14.8773 75.0929 14.792 75.0609 14.696C74.9435 14.2693 74.8849 13.7093 74.8849 13.016C74.8849 11.7147 74.9062 10.6747 74.9489 9.896C74.9915 8.92533 75.0129 8.008 75.0129 7.144C75.0129 6.87733 74.9809 6.50933 74.9169 6.04C74.9062 5.944 74.8902 5.78933 74.8689 5.576C74.8475 5.36267 74.8369 5.17067 74.8369 5C74.8369 4.75467 74.9169 4.56267 75.0769 4.424C75.2475 4.28533 75.4662 4.216 75.7329 4.216C75.9462 4.216 76.1169 4.28533 76.2449 4.424C76.3835 4.552 76.4529 4.73333 76.4529 4.968C76.4529 5.32 76.4635 5.784 76.4849 6.36C76.5062 6.936 76.5169 7.35733 76.5169 7.624C76.5169 7.95467 76.5062 8.39733 76.4849 8.952C76.4635 9.25067 76.4529 9.47467 76.4529 9.624C76.4529 10.0933 76.4582 10.4827 76.4689 10.792C76.8529 10.3973 77.3649 9.93867 78.0049 9.416C78.6555 8.88267 79.1622 8.50933 79.5249 8.296C79.9302 8.05067 80.1755 7.928 80.2609 7.928C80.4849 7.928 80.6769 7.976 80.8369 8.072C80.9969 8.168 81.0769 8.312 81.0769 8.504C81.0769 8.696 81.0502 8.84533 80.9969 8.952C80.9435 9.048 80.8475 9.14933 80.7089 9.256L78.6449 10.76C79.1035 11.3253 79.5782 11.9013 80.0689 12.488C80.5595 13.064 80.8902 13.416 81.0609 13.544ZM83.6171 4.728C83.9905 4.76 84.3158 4.86133 84.5931 5.032C84.8705 5.192 85.0091 5.43733 85.0091 5.768C85.0091 6.01333 84.8918 6.21067 84.6571 6.36C84.4331 6.49867 84.1611 6.568 83.8411 6.568C83.5318 6.568 83.3185 6.488 83.2011 6.328C83.0838 6.168 83.0251 6.00267 83.0251 5.832C83.0251 5.512 83.0571 5.24533 83.1211 5.032C83.1958 4.81867 83.3611 4.71733 83.6171 4.728ZM84.8971 11.816V12.28C84.8971 12.696 84.9078 13.0907 84.9291 13.464C84.9611 13.8267 84.9985 14.1947 85.0411 14.568C85.0305 14.6747 84.9505 14.7867 84.8011 14.904C84.6518 15.0107 84.5185 15.064 84.4011 15.064C84.1985 15.064 83.9905 15.0267 83.7771 14.952C83.5745 14.8667 83.4518 14.7653 83.4091 14.648C83.3451 14.3067 83.3131 14.0027 83.3131 13.736C83.3131 12.8613 83.2865 11.88 83.2331 10.792C83.1905 9.832 83.1691 9.16 83.1691 8.776C83.1691 8.584 83.2651 8.41867 83.4571 8.28C83.6491 8.14133 83.8518 8.072 84.0651 8.072C84.3745 8.072 84.5878 8.14133 84.7051 8.28C84.8331 8.41867 84.8971 8.63733 84.8971 8.936V11.816ZM89.1189 14.12C89.1189 14.3867 89.0122 14.6373 88.7989 14.872C88.5855 15.096 88.3509 15.208 88.0949 15.208C87.7962 15.208 87.5242 15.128 87.2789 14.968C87.0335 14.7973 86.9109 14.584 86.9109 14.328C86.9109 13.9227 86.9855 13.624 87.1349 13.432C87.2949 13.24 87.5295 13.144 87.8389 13.144C88.2015 13.144 88.5055 13.2347 88.7509 13.416C88.9962 13.5867 89.1189 13.8213 89.1189 14.12Z" fill="white"/>
</svg>
